<?xml version="1.0" encoding="utf-8" standalone="no"?>
<!DOCTYPE svg PUBLIC "-//W3C//DTD SVG 1.1//EN"
  "http://www.w3.org/Graphics/SVG/1.1/DTD/svg11.dtd">
<svg xmlns:xlink="http://www.w3.org/1999/xlink" width="1008pt" height="576pt" viewBox="0 0 1008 576" xmlns="http://www.w3.org/2000/svg" version="1.1">
 <metadata>
  <rdf:RDF xmlns:dc="http://purl.org/dc/elements/1.1/" xmlns:cc="http://creativecommons.org/ns#" xmlns:rdf="http://www.w3.org/1999/02/22-rdf-syntax-ns#">
   <cc:Work>
    <dc:type rdf:resource="http://purl.org/dc/dcmitype/StillImage"/>
    <dc:date>2026-09-11T17:55:25.170919</dc:date>
    <dc:format>image/svg+xml</dc:format>
    <dc:creator>
     <cc:Agent>
      <dc:title>Matplotlib; source-grounded portfolio figure</dc:title>
     </cc:Agent>
    </dc:creator>
   </cc:Work>
  </rdf:RDF>
 </metadata>
 <defs>
  <style type="text/css">*{stroke-linejoin: round; stroke-linecap: butt}</style>
 </defs>
 <g id="figure_1">
  <g id="patch_1">
   <path d="M 0 576 
L 1008 576 
L 1008 0 
L 0 0 
z
" style="fill: #ffffff"/>
  </g>
  <g id="axes_1">
   <g id="patch_2">
    <path d="M 45.36 35.712 
L 90.72 35.712 
L 90.72 32.256 
L 45.36 32.256 
z
" clip-path="url(#p4ed36bc716)" style="fill: #803744"/>
   </g>
   <g id="patch_3">
    <path d="M 53.424 315.072 
L 198.9792 315.072 
Q 207.0432 315.072 207.0432 310.464 
L 207.0432 184.32 
Q 207.0432 179.712 198.9792 179.712 
L 53.424 179.712 
Q 45.36 179.712 45.36 184.32 
L 45.36 310.464 
Q 45.36 315.072 53.424 315.072 
z
" clip-path="url(#p4ed36bc716)" style="fill: #f6f7f7; stroke: #dce1e2; stroke-width: 1.1; stroke-linejoin: miter"/>
   </g>
   <g id="patch_4">
    <path d="M 212.0832 247.392 
Q 220.6512 247.392 227.542149 247.392 
" clip-path="url(#p4ed36bc716)" style="fill: none; stroke: #547e82; stroke-width: 1.5; stroke-linecap: round"/>
    <path d="M 222.342149 244.792 
L 227.542149 247.392 
L 222.342149 249.992 
z
" clip-path="url(#p4ed36bc716)" style="fill: #547e82; stroke: #547e82; stroke-width: 1.5; stroke-linecap: round"/>
   </g>
   <g id="patch_5">
    <path d="M 242.3232 315.072 
L 387.8784 315.072 
Q 395.9424 315.072 395.9424 310.464 
L 395.9424 184.32 
Q 395.9424 179.712 387.8784 179.712 
L 242.3232 179.712 
Q 234.2592 179.712 234.2592 184.32 
L 234.2592 310.464 
Q 234.2592 315.072 242.3232 315.072 
z
" clip-path="url(#p4ed36bc716)" style="fill: #f1f6f5; stroke: #dce1e2; stroke-width: 1.1; stroke-linejoin: miter"/>
   </g>
   <g id="patch_6">
    <path d="M 400.9824 247.392 
Q 409.5504 247.392 416.441349 247.392 
" clip-path="url(#p4ed36bc716)" style="fill: none; stroke: #547e82; stroke-width: 1.5; stroke-linecap: round"/>
    <path d="M 411.241349 244.792 
L 416.441349 247.392 
L 411.241349 249.992 
z
" clip-path="url(#p4ed36bc716)" style="fill: #547e82; stroke: #547e82; stroke-width: 1.5; stroke-linecap: round"/>
   </g>
   <g id="patch_7">
    <path d="M 431.2224 315.072 
L 576.7776 315.072 
Q 584.8416 315.072 584.8416 310.464 
L 584.8416 184.32 
Q 584.8416 179.712 576.7776 179.712 
L 431.2224 179.712 
Q 423.1584 179.712 423.1584 184.32 
L 423.1584 310.464 
Q 423.1584 315.072 431.2224 315.072 
z
" clip-path="url(#p4ed36bc716)" style="fill: #f6f7f7; stroke: #dce1e2; stroke-width: 1.1; stroke-linejoin: miter"/>
   </g>
   <g id="patch_8">
    <path d="M 589.8816 247.392 
Q 598.4496 247.392 605.340549 247.392 
" clip-path="url(#p4ed36bc716)" style="fill: none; stroke: #547e82; stroke-width: 1.5; stroke-linecap: round"/>
    <path d="M 600.140549 244.792 
L 605.340549 247.392 
L 600.140549 249.992 
z
" clip-path="url(#p4ed36bc716)" style="fill: #547e82; stroke: #547e82; stroke-width: 1.5; stroke-linecap: round"/>
   </g>
   <g id="patch_9">
    <path d="M 620.1216 315.072 
L 765.6768 315.072 
Q 773.7408 315.072 773.7408 310.464 
L 773.7408 184.32 
Q 773.7408 179.712 765.6768 179.712 
L 620.1216 179.712 
Q 612.0576 179.712 612.0576 184.32 
L 612.0576 310.464 
Q 612.0576 315.072 620.1216 315.072 
z
" clip-path="url(#p4ed36bc716)" style="fill: #f1f6f5; stroke: #dce1e2; stroke-width: 1.1; stroke-linejoin: miter"/>
   </g>
   <g id="patch_10">
    <path d="M 778.7808 247.392 
Q 787.3488 247.392 794.239749 247.392 
" clip-path="url(#p4ed36bc716)" style="fill: none; stroke: #547e82; stroke-width: 1.5; stroke-linecap: round"/>
    <path d="M 789.039749 244.792 
L 794.239749 247.392 
L 789.039749 249.992 
z
" clip-path="url(#p4ed36bc716)" style="fill: #547e82; stroke: #547e82; stroke-width: 1.5; stroke-linecap: round"/>
   </g>
   <g id="patch_11">
    <path d="M 809.0208 315.072 
L 954.576 315.072 
Q 962.64 315.072 962.64 310.464 
L 962.64 184.32 
Q 962.64 179.712 954.576 179.712 
L 809.0208 179.712 
Q 800.9568 179.712 800.9568 184.32 
L 800.9568 310.464 
Q 800.9568 315.072 809.0208 315.072 
z
" clip-path="url(#p4ed36bc716)" style="fill: #f6f7f7; stroke: #dce1e2; stroke-width: 1.1; stroke-linejoin: miter"/>
   </g>
   <g id="patch_12">
    <path d="M 53.424 479.232 
L 954.576 479.232 
Q 962.64 479.232 962.64 474.624 
L 962.64 360.576 
Q 962.64 355.968 954.576 355.968 
L 53.424 355.968 
Q 45.36 355.968 45.36 360.576 
L 45.36 474.624 
Q 45.36 479.232 53.424 479.232 
z
" clip-path="url(#p4ed36bc716)" style="fill: #f1f6f5; stroke: #dce1e2; stroke-width: 1.1; stroke-linejoin: miter"/>
   </g>
   <g id="line2d_1">
    <path d="M 45.36 517.248 
L 962.64 517.248 
" clip-path="url(#p4ed36bc716)" style="fill: none; stroke: #dce1e2; stroke-linecap: square"/>
   </g>
   <g id="text_1">
    <text style="font-weight: 700; font-size: 10.5px; font-family: 'DejaVu Sans'; text-anchor: start; fill: #803744" x="104.832" y="39.834164" transform="rotate(-0 104.832 39.834164)">IMPLEMENTED METHOD · JOURNAL-SCRAPER</text>
   </g>
   <g id="text_2">
    <text style="font-weight: 700; font-size: 25px; font-family: 'DejaVu Sans'; text-anchor: start; fill: #343a40" x="45.36" y="82.623438" transform="rotate(-0 45.36 82.623438)">A traceable literature-collection pipeline</text>
   </g>
   <g id="text_3">
    <text style="font-size: 12.7px; font-family: 'DejaVu Sans'; text-anchor: start; fill: #697178" x="45.36" y="106.023906" transform="rotate(-0 45.36 106.023906)">Source adapters, title / author checks, persistent state and a manual-review path.</text>
   </g>
   <g id="text_4">
    <text style="font-weight: 700; font-size: 10.5px; font-family: 'DejaVu Sans'; text-anchor: start; fill: #547e82" x="60.48" y="203.242336" transform="rotate(-0 60.48 203.242336)">01</text>
   </g>
   <g id="text_5">
    <text style="font-weight: 700; font-size: 13px; font-family: 'DejaVu Sans'; text-anchor: start; fill: #343a40" x="60.48" y="228.543563" transform="rotate(-0 60.48 228.543563)">Load tasks</text>
   </g>
   <g id="text_6">
    <text style="font-size: 10.7px; font-family: 'DejaVu Sans'; fill: #697178" transform="translate(60.48 260.002594)">Excel metadata</text>
    <text style="font-size: 10.7px; font-family: 'DejaVu Sans'; fill: #697178" transform="translate(60.48 274.481031)">Journal / year filters</text>
   </g>
   <g id="text_7">
    <text style="font-weight: 700; font-size: 10.5px; font-family: 'DejaVu Sans'; text-anchor: start; fill: #547e82" x="249.3792" y="203.242336" transform="rotate(-0 249.3792 203.242336)">02</text>
   </g>
   <g id="text_8">
    <text style="font-weight: 700; font-size: 13px; font-family: 'DejaVu Sans'; text-anchor: start; fill: #343a40" x="249.3792" y="228.543563" transform="rotate(-0 249.3792 228.543563)">Search sources</text>
   </g>
   <g id="text_9">
    <text style="font-size: 10.7px; font-family: 'DejaVu Sans'; fill: #697178" transform="translate(249.3792 258.966031)">Five working-paper</text>
    <text style="font-size: 10.7px; font-family: 'DejaVu Sans'; fill: #697178" transform="translate(249.3792 274.481031)">source adapters</text>
   </g>
   <g id="text_10">
    <text style="font-weight: 700; font-size: 10.5px; font-family: 'DejaVu Sans'; text-anchor: start; fill: #547e82" x="438.2784" y="203.242336" transform="rotate(-0 438.2784 203.242336)">03</text>
   </g>
   <g id="text_11">
    <text style="font-weight: 700; font-size: 13px; font-family: 'DejaVu Sans'; text-anchor: start; fill: #343a40" x="438.2784" y="228.543563" transform="rotate(-0 438.2784 228.543563)">Check matches</text>
   </g>
   <g id="text_12">
    <text style="font-size: 10.7px; font-family: 'DejaVu Sans'; fill: #697178" transform="translate(438.2784 260.002594)">Normalized titles</text>
    <text style="font-size: 10.7px; font-family: 'DejaVu Sans'; fill: #697178" transform="translate(438.2784 275.517594)">Author checks</text>
   </g>
   <g id="text_13">
    <text style="font-weight: 700; font-size: 10.5px; font-family: 'DejaVu Sans'; text-anchor: start; fill: #547e82" x="627.1776" y="203.242336" transform="rotate(-0 627.1776 203.242336)">04</text>
   </g>
   <g id="text_14">
    <text style="font-weight: 700; font-size: 13px; font-family: 'DejaVu Sans'; text-anchor: start; fill: #343a40" x="627.1776" y="227.084109" transform="rotate(-0 627.1776 227.084109)">Keep state</text>
   </g>
   <g id="text_15">
    <text style="font-size: 10.7px; font-family: 'DejaVu Sans'; fill: #697178" transform="translate(627.1776 258.87157)">JSON memory</text>
    <text style="font-size: 10.7px; font-family: 'DejaVu Sans'; fill: #697178" transform="translate(627.1776 274.481031)">Source-level CSV log</text>
   </g>
   <g id="text_16">
    <text style="font-weight: 700; font-size: 10.5px; font-family: 'DejaVu Sans'; text-anchor: start; fill: #547e82" x="816.0768" y="203.242336" transform="rotate(-0 816.0768 203.242336)">05</text>
   </g>
   <g id="text_17">
    <text style="font-weight: 700; font-size: 13px; font-family: 'DejaVu Sans'; text-anchor: start; fill: #343a40" x="816.0768" y="227.284188" transform="rotate(-0 816.0768 227.284188)">Review outputs</text>
   </g>
   <g id="text_18">
    <text style="font-size: 10.7px; font-family: 'DejaVu Sans'; fill: #697178" transform="translate(816.0768 260.002594)">Collected files</text>
    <text style="font-size: 10.7px; font-family: 'DejaVu Sans'; fill: #697178" transform="translate(816.0768 275.517594)">Unresolved records</text>
   </g>
   <g id="text_19">
    <text style="font-weight: 700; font-size: 10.5px; font-family: 'DejaVu Sans'; text-anchor: start; fill: #547e82" x="68.544" y="384.106336" transform="rotate(-0 68.544 384.106336)">WORKING-PAPER SOURCE ADAPTERS</text>
   </g>
   <g id="text_20">
    <text style="font-weight: 700; font-size: 20px; font-family: 'DejaVu Sans'; text-anchor: start; fill: #343a40" x="68.544" y="422.099687" transform="rotate(-0 68.544 422.099687)">NBER     SSRN     IDEAS     CEPR     IZA</text>
   </g>
   <g id="text_21">
    <text style="font-size: 12px; font-family: 'DejaVu Sans'; text-anchor: start; fill: #697178" x="68.544" y="447.46725" transform="rotate(-0 68.544 447.46725)">Title matching uses normalized string similarity; author checks compare candidate text.</text>
   </g>
   <g id="text_22">
    <text style="font-size: 12px; font-family: 'DejaVu Sans'; text-anchor: start; fill: #697178" x="68.544" y="468.77925" transform="rotate(-0 68.544 468.77925)">Each source outcome is logged; unresolved tasks are exported for manual follow-up.</text>
   </g>
   <g id="text_23">
    <text style="font-size: 10.2px; font-family: 'DejaVu Sans'; text-anchor: start; fill: #697178" x="45.36" y="541.139719" transform="rotate(-0 45.36 541.139719)">Source: journal-scraper / main.py, input_loader.py, matcher.py, source_runner.py and state_manager.py</text>
   </g>
   <g id="text_24">
    <text style="font-size: 9.5px; font-family: 'DejaVu Sans'; text-anchor: start; fill: #697178" x="45.36" y="558.436906" transform="rotate(-0 45.36 558.436906)">Public-code workflow. No collection success rate is claimed; this diagram does not attribute semantic embeddings to matcher.py.</text>
   </g>
  </g>
 </g>
 <defs>
  <clipPath id="p4ed36bc716">
   <rect x="0" y="0" width="1008" height="576"/>
  </clipPath>
 </defs>
</svg>
