<?xml version="1.0" encoding="utf-8" standalone="no"?>
<!DOCTYPE svg PUBLIC "-//W3C//DTD SVG 1.1//EN"
  "http://www.w3.org/Graphics/SVG/1.1/DTD/svg11.dtd">
<svg xmlns:xlink="http://www.w3.org/1999/xlink" width="1152pt" height="792pt" viewBox="0 0 1152 792" xmlns="http://www.w3.org/2000/svg" version="1.1">
 <metadata>
  <rdf:RDF xmlns:dc="http://purl.org/dc/elements/1.1/" xmlns:cc="http://creativecommons.org/ns#" xmlns:rdf="http://www.w3.org/1999/02/22-rdf-syntax-ns#">
   <cc:Work>
    <dc:type rdf:resource="http://purl.org/dc/dcmitype/StillImage"/>
    <dc:date>2026-09-11T18:24:23.137803</dc:date>
    <dc:format>image/svg+xml</dc:format>
    <dc:creator>
     <cc:Agent>
      <dc:title>Matplotlib; committed traffic analysis outputs</dc:title>
     </cc:Agent>
    </dc:creator>
   </cc:Work>
  </rdf:RDF>
 </metadata>
 <defs>
  <style type="text/css">*{stroke-linejoin: round; stroke-linecap: butt}</style>
 </defs>
 <g id="figure_1">
  <g id="patch_1">
   <path d="M 0 792 
L 1152 792 
L 1152 0 
L 0 0 
z
" style="fill: #ffffff"/>
  </g>
  <g id="axes_1">
   <g id="patch_2">
    <path d="M 209.242761 592.416 
L 513.061239 592.416 
L 513.061239 221.76 
L 209.242761 221.76 
z
" style="fill: #fafbfb"/>
   </g>
   <g id="matplotlib.axis_1">
    <g id="xtick_1">
     <g id="line2d_1">
      <path d="M 265.046155 592.416 
L 265.046155 221.76 
" clip-path="url(#p747e111950)" style="fill: none; stroke: #e0e4e5; stroke-width: 0.7; stroke-linecap: square"/>
     </g>
     <g id="line2d_2">
      <defs>
       <path id="m24da65388b" d="M 0 0 
L 0 3.5 
" style="stroke: #697178; stroke-width: 0.8"/>
      </defs>
      <g>
       <use xlink:href="#m24da65388b" x="265.046155" y="592.416" style="fill: #697178; stroke: #697178; stroke-width: 0.8"/>
      </g>
     </g>
     <g id="text_1">
      <text style="font-size: 10px; font-family: 'DejaVu Sans'; text-anchor: middle; fill: #697178" x="265.046155" y="607.013656" transform="rotate(-0 265.046155 607.013656)">51.63</text>
     </g>
    </g>
    <g id="xtick_2">
     <g id="line2d_3">
      <path d="M 327.049926 592.416 
L 327.049926 221.76 
" clip-path="url(#p747e111950)" style="fill: none; stroke: #e0e4e5; stroke-width: 0.7; stroke-linecap: square"/>
     </g>
     <g id="line2d_4">
      <g>
       <use xlink:href="#m24da65388b" x="327.049926" y="592.416" style="fill: #697178; stroke: #697178; stroke-width: 0.8"/>
      </g>
     </g>
     <g id="text_2">
      <text style="font-size: 10px; font-family: 'DejaVu Sans'; text-anchor: middle; fill: #697178" x="327.049926" y="607.013656" transform="rotate(-0 327.049926 607.013656)">51.66</text>
     </g>
    </g>
    <g id="xtick_3">
     <g id="line2d_5">
      <path d="M 389.053697 592.416 
L 389.053697 221.76 
" clip-path="url(#p747e111950)" style="fill: none; stroke: #e0e4e5; stroke-width: 0.7; stroke-linecap: square"/>
     </g>
     <g id="line2d_6">
      <g>
       <use xlink:href="#m24da65388b" x="389.053697" y="592.416" style="fill: #697178; stroke: #697178; stroke-width: 0.8"/>
      </g>
     </g>
     <g id="text_3">
      <text style="font-size: 10px; font-family: 'DejaVu Sans'; text-anchor: middle; fill: #697178" x="389.053697" y="607.013656" transform="rotate(-0 389.053697 607.013656)">51.69</text>
     </g>
    </g>
    <g id="xtick_4">
     <g id="line2d_7">
      <path d="M 451.057468 592.416 
L 451.057468 221.76 
" clip-path="url(#p747e111950)" style="fill: none; stroke: #e0e4e5; stroke-width: 0.7; stroke-linecap: square"/>
     </g>
     <g id="line2d_8">
      <g>
       <use xlink:href="#m24da65388b" x="451.057468" y="592.416" style="fill: #697178; stroke: #697178; stroke-width: 0.8"/>
      </g>
     </g>
     <g id="text_4">
      <text style="font-size: 10px; font-family: 'DejaVu Sans'; text-anchor: middle; fill: #697178" x="451.057468" y="607.013656" transform="rotate(-0 451.057468 607.013656)">51.72</text>
     </g>
    </g>
    <g id="xtick_5">
     <g id="line2d_9">
      <path d="M 513.061239 592.416 
L 513.061239 221.76 
" clip-path="url(#p747e111950)" style="fill: none; stroke: #e0e4e5; stroke-width: 0.7; stroke-linecap: square"/>
     </g>
     <g id="line2d_10">
      <g>
       <use xlink:href="#m24da65388b" x="513.061239" y="592.416" style="fill: #697178; stroke: #697178; stroke-width: 0.8"/>
      </g>
     </g>
     <g id="text_5">
      <text style="font-size: 10px; font-family: 'DejaVu Sans'; text-anchor: middle; fill: #697178" x="513.061239" y="607.013656" transform="rotate(-0 513.061239 607.013656)">51.75</text>
     </g>
    </g>
    <g id="text_6">
     <text style="font-size: 11px; font-family: 'DejaVu Sans'; text-anchor: middle; fill: #343a40" x="361.152" y="621.774281" transform="rotate(-0 361.152 621.774281)">Longitude (° E)</text>
    </g>
   </g>
   <g id="matplotlib.axis_2">
    <g id="ytick_1">
     <g id="line2d_11">
      <path d="M 209.242761 589.961325 
L 513.061239 589.961325 
" clip-path="url(#p747e111950)" style="fill: none; stroke: #e0e4e5; stroke-width: 0.7; stroke-linecap: square"/>
     </g>
     <g id="line2d_12">
      <defs>
       <path id="me4b15984ff" d="M 0 0 
L -3.5 0 
" style="stroke: #697178; stroke-width: 0.8"/>
      </defs>
      <g>
       <use xlink:href="#me4b15984ff" x="209.242761" y="589.961325" style="fill: #697178; stroke: #697178; stroke-width: 0.8"/>
      </g>
     </g>
     <g id="text_7">
      <text style="font-size: 10px; font-family: 'DejaVu Sans'; text-anchor: end; fill: #697178" x="202.242761" y="593.760153" transform="rotate(-0 202.242761 593.760153)">32.58</text>
     </g>
    </g>
    <g id="ytick_2">
     <g id="line2d_13">
      <path d="M 209.242761 516.32106 
L 513.061239 516.32106 
" clip-path="url(#p747e111950)" style="fill: none; stroke: #e0e4e5; stroke-width: 0.7; stroke-linecap: square"/>
     </g>
     <g id="line2d_14">
      <g>
       <use xlink:href="#me4b15984ff" x="209.242761" y="516.32106" style="fill: #697178; stroke: #697178; stroke-width: 0.8"/>
      </g>
     </g>
     <g id="text_8">
      <text style="font-size: 10px; font-family: 'DejaVu Sans'; text-anchor: end; fill: #697178" x="202.242761" y="520.119888" transform="rotate(-0 202.242761 520.119888)">32.61</text>
     </g>
    </g>
    <g id="ytick_3">
     <g id="line2d_15">
      <path d="M 209.242761 442.680795 
L 513.061239 442.680795 
" clip-path="url(#p747e111950)" style="fill: none; stroke: #e0e4e5; stroke-width: 0.7; stroke-linecap: square"/>
     </g>
     <g id="line2d_16">
      <g>
       <use xlink:href="#me4b15984ff" x="209.242761" y="442.680795" style="fill: #697178; stroke: #697178; stroke-width: 0.8"/>
      </g>
     </g>
     <g id="text_9">
      <text style="font-size: 10px; font-family: 'DejaVu Sans'; text-anchor: end; fill: #697178" x="202.242761" y="446.479623" transform="rotate(-0 202.242761 446.479623)">32.64</text>
     </g>
    </g>
    <g id="ytick_4">
     <g id="line2d_17">
      <path d="M 209.242761 369.04053 
L 513.061239 369.04053 
" clip-path="url(#p747e111950)" style="fill: none; stroke: #e0e4e5; stroke-width: 0.7; stroke-linecap: square"/>
     </g>
     <g id="line2d_18">
      <g>
       <use xlink:href="#me4b15984ff" x="209.242761" y="369.04053" style="fill: #697178; stroke: #697178; stroke-width: 0.8"/>
      </g>
     </g>
     <g id="text_10">
      <text style="font-size: 10px; font-family: 'DejaVu Sans'; text-anchor: end; fill: #697178" x="202.242761" y="372.839358" transform="rotate(-0 202.242761 372.839358)">32.67</text>
     </g>
    </g>
    <g id="ytick_5">
     <g id="line2d_19">
      <path d="M 209.242761 295.400265 
L 513.061239 295.400265 
" clip-path="url(#p747e111950)" style="fill: none; stroke: #e0e4e5; stroke-width: 0.7; stroke-linecap: square"/>
     </g>
     <g id="line2d_20">
      <g>
       <use xlink:href="#me4b15984ff" x="209.242761" y="295.400265" style="fill: #697178; stroke: #697178; stroke-width: 0.8"/>
      </g>
     </g>
     <g id="text_11">
      <text style="font-size: 10px; font-family: 'DejaVu Sans'; text-anchor: end; fill: #697178" x="202.242761" y="299.199093" transform="rotate(-0 202.242761 299.199093)">32.70</text>
     </g>
    </g>
    <g id="ytick_6">
     <g id="line2d_21">
      <path d="M 209.242761 221.76 
L 513.061239 221.76 
" clip-path="url(#p747e111950)" style="fill: none; stroke: #e0e4e5; stroke-width: 0.7; stroke-linecap: square"/>
     </g>
     <g id="line2d_22">
      <g>
       <use xlink:href="#me4b15984ff" x="209.242761" y="221.76" style="fill: #697178; stroke: #697178; stroke-width: 0.8"/>
      </g>
     </g>
     <g id="text_12">
      <text style="font-size: 10px; font-family: 'DejaVu Sans'; text-anchor: end; fill: #697178" x="202.242761" y="225.558828" transform="rotate(-0 202.242761 225.558828)">32.73</text>
     </g>
    </g>
    <g id="text_13">
     <text style="font-size: 11px; font-family: 'DejaVu Sans'; text-anchor: middle; fill: #343a40" x="166.972058" y="407.088" transform="rotate(-90 166.972058 407.088)">Latitude (° N)</text>
    </g>
   </g>
   <g id="patch_3">
    <path d="M 209.242761 592.416 
L 209.242761 221.76 
" style="fill: none; stroke: #e0e4e5; stroke-width: 0.8; stroke-linejoin: miter; stroke-linecap: square"/>
   </g>
   <g id="patch_4">
    <path d="M 209.242761 592.416 
L 513.061239 592.416 
" style="fill: none; stroke: #e0e4e5; stroke-width: 0.8; stroke-linejoin: miter; stroke-linecap: square"/>
   </g>
   <g id="PathCollection_1">
    <path d="M 293.035484 409.531156 
C 294.616412 409.531156 296.132802 408.903046 297.250687 407.785162 
C 298.368571 406.667277 298.996681 405.150887 298.996681 403.569959 
C 298.996681 401.989031 298.368571 400.472641 297.250687 399.354756 
C 296.132802 398.236872 294.616412 397.608762 293.035484 397.608762 
C 291.454556 397.608762 289.938166 398.236872 288.820281 399.354756 
C 287.702397 400.472641 287.074287 401.989031 287.074287 403.569959 
C 287.074287 405.150887 287.702397 406.667277 288.820281 407.785162 
C 289.938166 408.903046 291.454556 409.531156 293.035484 409.531156 
z
" clip-path="url(#p747e111950)" style="fill: #803744; fill-opacity: 0.87; stroke: #ffffff; stroke-opacity: 0.87"/>
    <path d="M 463.344755 251.458599 
C 464.891559 251.458599 466.375218 250.844048 467.468974 249.750292 
C 468.562729 248.656537 469.177281 247.172877 469.177281 245.626073 
C 469.177281 244.079269 468.562729 242.59561 467.468974 241.501855 
C 466.375218 240.408099 464.891559 239.793548 463.344755 239.793548 
C 461.797951 239.793548 460.314292 240.408099 459.220536 241.501855 
C 458.126781 242.59561 457.512229 244.079269 457.512229 245.626073 
C 457.512229 247.172877 458.126781 248.656537 459.220536 249.750292 
C 460.314292 250.844048 461.797951 251.458599 463.344755 251.458599 
z
" clip-path="url(#p747e111950)" style="fill: #803744; fill-opacity: 0.87; stroke: #ffffff; stroke-opacity: 0.87"/>
    <path d="M 413.691722 269.675448 
C 414.930079 269.675448 416.117882 269.183443 416.993533 268.307793 
C 417.869183 267.432142 418.361188 266.244339 418.361188 265.005982 
C 418.361188 263.767625 417.869183 262.579822 416.993533 261.704171 
C 416.117882 260.828521 414.930079 260.336516 413.691722 260.336516 
C 412.453365 260.336516 411.265562 260.828521 410.389911 261.704171 
C 409.514261 262.579822 409.022256 263.767625 409.022256 265.005982 
C 409.022256 266.244339 409.514261 267.432142 410.389911 268.307793 
C 411.265562 269.183443 412.453365 269.675448 413.691722 269.675448 
z
" clip-path="url(#p747e111950)" style="fill: #803744; fill-opacity: 0.87; stroke: #ffffff; stroke-opacity: 0.87"/>
    <path d="M 234.938777 416.591993 
C 236.489815 416.591993 237.977535 415.975759 239.074284 414.87901 
C 240.171034 413.78226 240.787267 412.29454 240.787267 410.743503 
C 240.787267 409.192465 240.171034 407.704745 239.074284 406.607996 
C 237.977535 405.511247 236.489815 404.895013 234.938777 404.895013 
C 233.38774 404.895013 231.90002 405.511247 230.80327 406.607996 
C 229.706521 407.704745 229.090287 409.192465 229.090287 410.743503 
C 229.090287 412.29454 229.706521 413.78226 230.80327 414.87901 
C 231.90002 415.975759 233.38774 416.591993 234.938777 416.591993 
z
" clip-path="url(#p747e111950)" style="fill: #803744; fill-opacity: 0.87; stroke: #ffffff; stroke-opacity: 0.87"/>
    <path d="M 485.685334 325.153213 
C 486.891698 325.153213 488.048815 324.67392 488.901843 323.820891 
C 489.754872 322.967863 490.234165 321.810746 490.234165 320.604382 
C 490.234165 319.398018 489.754872 318.240901 488.901843 317.387872 
C 488.048815 316.534844 486.891698 316.055551 485.685334 316.055551 
C 484.47897 316.055551 483.321853 316.534844 482.468824 317.387872 
C 481.615796 318.240901 481.136502 319.398018 481.136502 320.604382 
C 481.136502 321.810746 481.615796 322.967863 482.468824 323.820891 
C 483.321853 324.67392 484.47897 325.153213 485.685334 325.153213 
z
" clip-path="url(#p747e111950)" style="fill: #803744; fill-opacity: 0.87; stroke: #ffffff; stroke-opacity: 0.87"/>
    <path d="M 412.84165 396.733282 
C 414.489453 396.733282 416.069987 396.078603 417.235159 394.913431 
C 418.400331 393.748259 419.05501 392.167724 419.05501 390.519922 
C 419.05501 388.87212 418.400331 387.291586 417.235159 386.126414 
C 416.069987 384.961241 414.489453 384.306563 412.84165 384.306563 
C 411.193848 384.306563 409.613314 384.961241 408.448142 386.126414 
C 407.28297 387.291586 406.628291 388.87212 406.628291 390.519922 
C 406.628291 392.167724 407.28297 393.748259 408.448142 394.913431 
C 409.613314 396.078603 411.193848 396.733282 412.84165 396.733282 
z
" clip-path="url(#p747e111950)" style="fill: #803744; fill-opacity: 0.87; stroke: #ffffff; stroke-opacity: 0.87"/>
    <path d="M 309.169279 384.091154 
C 310.627303 384.091154 312.025806 383.511875 313.056785 382.480897 
C 314.087763 381.449918 314.667042 380.051414 314.667042 378.59339 
C 314.667042 377.135366 314.087763 375.736863 313.056785 374.705884 
C 312.025806 373.674906 310.627303 373.095627 309.169279 373.095627 
C 307.711255 373.095627 306.312751 373.674906 305.281772 374.705884 
C 304.250794 375.736863 303.671515 377.135366 303.671515 378.59339 
C 303.671515 380.051414 304.250794 381.449918 305.281772 382.480897 
C 306.312751 383.511875 307.711255 384.091154 309.169279 384.091154 
z
" clip-path="url(#p747e111950)" style="fill: #803744; fill-opacity: 0.87; stroke: #ffffff; stroke-opacity: 0.87"/>
    <path d="M 339.779507 385.488675 
C 341.226874 385.488675 342.615156 384.91363 343.638599 383.890186 
C 344.662043 382.866743 345.237088 381.478461 345.237088 380.031094 
C 345.237088 378.583726 344.662043 377.195445 343.638599 376.172001 
C 342.615156 375.148558 341.226874 374.573513 339.779507 374.573513 
C 338.332139 374.573513 336.943858 375.148558 335.920414 376.172001 
C 334.896971 377.195445 334.321926 378.583726 334.321926 380.031094 
C 334.321926 381.478461 334.896971 382.866743 335.920414 383.890186 
C 336.943858 384.91363 338.332139 385.488675 339.779507 385.488675 
z
" clip-path="url(#p747e111950)" style="fill: #803744; fill-opacity: 0.87; stroke: #ffffff; stroke-opacity: 0.87"/>
    <path d="M 491.602974 407.627773 
C 493.39885 407.627773 495.121414 406.914264 496.391291 405.644387 
C 497.661167 404.374511 498.374677 402.651947 498.374677 400.85607 
C 498.374677 399.060193 497.661167 397.337629 496.391291 396.067753 
C 495.121414 394.797876 493.39885 394.084367 491.602974 394.084367 
C 489.807097 394.084367 488.084533 394.797876 486.814656 396.067753 
C 485.54478 397.337629 484.83127 399.060193 484.83127 400.85607 
C 484.83127 402.651947 485.54478 404.374511 486.814656 405.644387 
C 488.084533 406.914264 489.807097 407.627773 491.602974 407.627773 
z
" clip-path="url(#p747e111950)" style="fill: #803744; fill-opacity: 0.87; stroke: #ffffff; stroke-opacity: 0.87"/>
   </g>
   <g id="PathCollection_2">
    <path d="M 419.156941 371.795992 
C 420.592848 371.795992 421.970137 371.2255 422.985476 370.210161 
C 424.000816 369.194821 424.571307 367.817532 424.571307 366.381625 
C 424.571307 364.945719 424.000816 363.56843 422.985476 362.55309 
C 421.970137 361.537751 420.592848 360.967259 419.156941 360.967259 
C 417.721034 360.967259 416.343745 361.537751 415.328406 362.55309 
C 414.313066 363.56843 413.742575 364.945719 413.742575 366.381625 
C 413.742575 367.817532 414.313066 369.194821 415.328406 370.210161 
C 416.343745 371.2255 417.721034 371.795992 419.156941 371.795992 
z
" clip-path="url(#p747e111950)" style="fill: #547e82; fill-opacity: 0.87; stroke: #ffffff; stroke-opacity: 0.87"/>
    <path d="M 406.473036 418.853846 
C 407.888829 418.853846 409.246826 418.291346 410.247943 417.290229 
C 411.24906 416.289112 411.81156 414.931115 411.81156 413.515322 
C 411.81156 412.099529 411.24906 410.741533 410.247943 409.740416 
C 409.246826 408.739299 407.888829 408.176798 406.473036 408.176798 
C 405.057243 408.176798 403.699247 408.739299 402.69813 409.740416 
C 401.697013 410.741533 401.134512 412.099529 401.134512 413.515322 
C 401.134512 414.931115 401.697013 416.289112 402.69813 417.290229 
C 403.699247 418.291346 405.057243 418.853846 406.473036 418.853846 
z
" clip-path="url(#p747e111950)" style="fill: #547e82; fill-opacity: 0.87; stroke: #ffffff; stroke-opacity: 0.87"/>
    <path d="M 437.34244 345.616387 
C 438.626537 345.616387 439.858213 345.10621 440.766206 344.198217 
C 441.6742 343.290223 442.184377 342.058547 442.184377 340.774451 
C 442.184377 339.490354 441.6742 338.258678 440.766206 337.350684 
C 439.858213 336.442691 438.626537 335.932514 437.34244 335.932514 
C 436.058344 335.932514 434.826668 336.442691 433.918674 337.350684 
C 433.010681 338.258678 432.500504 339.490354 432.500504 340.774451 
C 432.500504 342.058547 433.010681 343.290223 433.918674 344.198217 
C 434.826668 345.10621 436.058344 345.616387 437.34244 345.616387 
z
" clip-path="url(#p747e111950)" style="fill: #547e82; fill-opacity: 0.87; stroke: #ffffff; stroke-opacity: 0.87"/>
    <path d="M 421.476915 421.094876 
C 423.015266 421.094876 424.490817 420.483683 425.578595 419.395905 
C 426.666373 418.308127 427.277566 416.832576 427.277566 415.294226 
C 427.277566 413.755875 426.666373 412.280325 425.578595 411.192547 
C 424.490817 410.104769 423.015266 409.493575 421.476915 409.493575 
C 419.938565 409.493575 418.463014 410.104769 417.375236 411.192547 
C 416.287458 412.280325 415.676265 413.755875 415.676265 415.294226 
C 415.676265 416.832576 416.287458 418.308127 417.375236 419.395905 
C 418.463014 420.483683 419.938565 421.094876 421.476915 421.094876 
z
" clip-path="url(#p747e111950)" style="fill: #547e82; fill-opacity: 0.87; stroke: #ffffff; stroke-opacity: 0.87"/>
    <path d="M 323.416712 491.831884 
C 325.001318 491.831884 326.521236 491.202314 327.641721 490.081828 
C 328.762207 488.961342 329.391778 487.441424 329.391778 485.856818 
C 329.391778 484.272212 328.762207 482.752294 327.641721 481.631809 
C 326.521236 480.511323 325.001318 479.881752 323.416712 479.881752 
C 321.832106 479.881752 320.312188 480.511323 319.191702 481.631809 
C 318.071216 482.752294 317.441646 484.272212 317.441646 485.856818 
C 317.441646 487.441424 318.071216 488.961342 319.191702 490.081828 
C 320.312188 491.202314 321.832106 491.831884 323.416712 491.831884 
z
" clip-path="url(#p747e111950)" style="fill: #547e82; fill-opacity: 0.87; stroke: #ffffff; stroke-opacity: 0.87"/>
    <path d="M 310.723196 490.457563 
C 312.11597 490.457563 313.451887 489.904208 314.436727 488.919369 
C 315.421566 487.934529 315.974921 486.598612 315.974921 485.205838 
C 315.974921 483.813065 315.421566 482.477148 314.436727 481.492308 
C 313.451887 480.507469 312.11597 479.954114 310.723196 479.954114 
C 309.330423 479.954114 307.994506 480.507469 307.009666 481.492308 
C 306.024826 482.477148 305.471472 483.813065 305.471472 485.205838 
C 305.471472 486.598612 306.024826 487.934529 307.009666 488.919369 
C 307.994506 489.904208 309.330423 490.457563 310.723196 490.457563 
z
" clip-path="url(#p747e111950)" style="fill: #547e82; fill-opacity: 0.87; stroke: #ffffff; stroke-opacity: 0.87"/>
    <path d="M 278.967862 488.041399 
C 280.527476 488.041399 282.023423 487.421758 283.126238 486.318944 
C 284.229052 485.21613 284.848693 483.720183 284.848693 482.160568 
C 284.848693 480.600953 284.229052 479.105006 283.126238 478.002192 
C 282.023423 476.899378 280.527476 476.279737 278.967862 476.279737 
C 277.408247 476.279737 275.9123 476.899378 274.809486 478.002192 
C 273.706672 479.105006 273.08703 480.600953 273.08703 482.160568 
C 273.08703 483.720183 273.706672 485.21613 274.809486 486.318944 
C 275.9123 487.421758 277.408247 488.041399 278.967862 488.041399 
z
" clip-path="url(#p747e111950)" style="fill: #547e82; fill-opacity: 0.87; stroke: #ffffff; stroke-opacity: 0.87"/>
    <path d="M 286.126197 448.744835 
C 287.919345 448.744835 289.639292 448.03241 290.907239 446.764463 
C 292.175186 445.496516 292.887611 443.776569 292.887611 441.983421 
C 292.887611 440.190273 292.175186 438.470327 290.907239 437.20238 
C 289.639292 435.934433 287.919345 435.222007 286.126197 435.222007 
C 284.333049 435.222007 282.613103 435.934433 281.345155 437.20238 
C 280.077208 438.470327 279.364783 440.190273 279.364783 441.983421 
C 279.364783 443.776569 280.077208 445.496516 281.345155 446.764463 
C 282.613103 448.03241 284.333049 448.744835 286.126197 448.744835 
z
" clip-path="url(#p747e111950)" style="fill: #547e82; fill-opacity: 0.87; stroke: #ffffff; stroke-opacity: 0.87"/>
    <path d="M 283.700403 464.136564 
C 285.21172 464.136564 286.661341 463.536111 287.730004 462.467448 
C 288.798666 461.398786 289.399119 459.949165 289.399119 458.437848 
C 289.399119 456.926531 288.798666 455.47691 287.730004 454.408247 
C 286.661341 453.339584 285.21172 452.739132 283.700403 452.739132 
C 282.189086 452.739132 280.739465 453.339584 279.670802 454.408247 
C 278.60214 455.47691 278.001687 456.926531 278.001687 458.437848 
C 278.001687 459.949165 278.60214 461.398786 279.670802 462.467448 
C 280.739465 463.536111 282.189086 464.136564 283.700403 464.136564 
z
" clip-path="url(#p747e111950)" style="fill: #547e82; fill-opacity: 0.87; stroke: #ffffff; stroke-opacity: 0.87"/>
    <path d="M 347.06557 576.176912 
C 348.702104 576.176912 350.271831 575.52671 351.429035 574.369505 
C 352.58624 573.212301 353.236442 571.642574 353.236442 570.00604 
C 353.236442 568.369506 352.58624 566.799779 351.429035 565.642575 
C 350.271831 564.48537 348.702104 563.835168 347.06557 563.835168 
C 345.429036 563.835168 343.859309 564.48537 342.702105 565.642575 
C 341.5449 566.799779 340.894698 568.369506 340.894698 570.00604 
C 340.894698 571.642574 341.5449 573.212301 342.702105 574.369505 
C 343.859309 575.52671 345.429036 576.176912 347.06557 576.176912 
z
" clip-path="url(#p747e111950)" style="fill: #547e82; fill-opacity: 0.87; stroke: #ffffff; stroke-opacity: 0.87"/>
   </g>
   <g id="PathCollection_3">
    <path d="M 451.776712 380.981456 
C 453.23477 380.981456 454.633306 380.402163 455.664309 379.37116 
C 456.695312 378.340157 457.274605 376.94162 457.274605 375.483562 
C 457.274605 374.025504 456.695312 372.626967 455.664309 371.595964 
C 454.633306 370.564961 453.23477 369.985669 451.776712 369.985669 
C 450.318653 369.985669 448.920117 370.564961 447.889114 371.595964 
C 446.858111 372.626967 446.278818 374.025504 446.278818 375.483562 
C 446.278818 376.94162 446.858111 378.340157 447.889114 379.37116 
C 448.920117 380.402163 450.318653 380.981456 451.776712 380.981456 
z
" clip-path="url(#p747e111950)" style="fill: #ac8848; fill-opacity: 0.87; stroke: #ffffff; stroke-opacity: 0.87"/>
    <path d="M 352.149052 353.370846 
C 353.940631 353.370846 355.659072 352.659045 356.925909 351.392208 
C 358.192746 350.12537 358.904548 348.406929 358.904548 346.615351 
C 358.904548 344.823773 358.192746 343.105331 356.925909 341.838494 
C 355.659072 340.571657 353.940631 339.859855 352.149052 339.859855 
C 350.357474 339.859855 348.639033 340.571657 347.372196 341.838494 
C 346.105359 343.105331 345.393557 344.823773 345.393557 346.615351 
C 345.393557 348.406929 346.105359 350.12537 347.372196 351.392208 
C 348.639033 352.659045 350.357474 353.370846 352.149052 353.370846 
z
" clip-path="url(#p747e111950)" style="fill: #ac8848; fill-opacity: 0.87; stroke: #ffffff; stroke-opacity: 0.87"/>
    <path d="M 256.797793 488.132128 
C 258.24639 488.132128 259.63585 487.556595 260.660163 486.532282 
C 261.684475 485.50797 262.260008 484.11851 262.260008 482.669913 
C 262.260008 481.221317 261.684475 479.831856 260.660163 478.807544 
C 259.63585 477.783232 258.24639 477.207698 256.797793 477.207698 
C 255.349197 477.207698 253.959737 477.783232 252.935424 478.807544 
C 251.911112 479.831856 251.335579 481.221317 251.335579 482.669913 
C 251.335579 484.11851 251.911112 485.50797 252.935424 486.532282 
C 253.959737 487.556595 255.349197 488.132128 256.797793 488.132128 
z
" clip-path="url(#p747e111950)" style="fill: #ac8848; fill-opacity: 0.87; stroke: #ffffff; stroke-opacity: 0.87"/>
    <path d="M 343.67603 442.43722 
C 345.060597 442.43722 346.388642 441.887126 347.367678 440.908089 
C 348.346715 439.929053 348.896809 438.601008 348.896809 437.216442 
C 348.896809 435.831875 348.346715 434.50383 347.367678 433.524794 
C 346.388642 432.545758 345.060597 431.995663 343.67603 431.995663 
C 342.291464 431.995663 340.963419 432.545758 339.984383 433.524794 
C 339.005346 434.50383 338.455252 435.831875 338.455252 437.216442 
C 338.455252 438.601008 339.005346 439.929053 339.984383 440.908089 
C 340.963419 441.887126 342.291464 442.43722 343.67603 442.43722 
z
" clip-path="url(#p747e111950)" style="fill: #ac8848; fill-opacity: 0.87; stroke: #ffffff; stroke-opacity: 0.87"/>
   </g>
   <g id="PathCollection_4">
    <path d="M 412.854878 361.453404 
C 414.4528 361.453404 415.985491 360.818543 417.115392 359.688642 
C 418.245294 358.55874 418.880155 357.026049 418.880155 355.428127 
C 418.880155 353.830205 418.245294 352.297514 417.115392 351.167612 
C 415.985491 350.03771 414.4528 349.402849 412.854878 349.402849 
C 411.256955 349.402849 409.724265 350.03771 408.594363 351.167612 
C 407.464461 352.297514 406.8296 353.830205 406.8296 355.428127 
C 406.8296 357.026049 407.464461 358.55874 408.594363 359.688642 
C 409.724265 360.818543 411.256955 361.453404 412.854878 361.453404 
z
" clip-path="url(#p747e111950)" style="fill: #807090; fill-opacity: 0.87; stroke: #ffffff; stroke-opacity: 0.87"/>
    <path d="M 350.802331 492.746603 
C 352.427521 492.746603 353.986368 492.100908 355.135551 490.951725 
C 356.284734 489.802541 356.93043 488.243695 356.93043 486.618504 
C 356.93043 484.993313 356.284734 483.434467 355.135551 482.285284 
C 353.986368 481.1361 352.427521 480.490405 350.802331 480.490405 
C 349.17714 480.490405 347.618294 481.1361 346.46911 482.285284 
C 345.319927 483.434467 344.674231 484.993313 344.674231 486.618504 
C 344.674231 488.243695 345.319927 489.802541 346.46911 490.951725 
C 347.618294 492.100908 349.17714 492.746603 350.802331 492.746603 
z
" clip-path="url(#p747e111950)" style="fill: #807090; fill-opacity: 0.87; stroke: #ffffff; stroke-opacity: 0.87"/>
    <path d="M 358.014403 493.134551 
C 359.667745 493.134551 361.253593 492.477671 362.422683 491.308581 
C 363.591773 490.139492 364.248653 488.553643 364.248653 486.900301 
C 364.248653 485.246959 363.591773 483.66111 362.422683 482.49202 
C 361.253593 481.322931 359.667745 480.666051 358.014403 480.666051 
C 356.36106 480.666051 354.775212 481.322931 353.606122 482.49202 
C 352.437032 483.66111 351.780152 485.246959 351.780152 486.900301 
C 351.780152 488.553643 352.437032 490.139492 353.606122 491.308581 
C 354.775212 492.477671 356.36106 493.134551 358.014403 493.134551 
z
" clip-path="url(#p747e111950)" style="fill: #807090; fill-opacity: 0.87; stroke: #ffffff; stroke-opacity: 0.87"/>
    <path d="M 396.747952 465.892079 
C 398.251634 465.892079 399.693932 465.29466 400.757196 464.231396 
C 401.82046 463.168132 402.417879 461.725834 402.417879 460.222151 
C 402.417879 458.718469 401.82046 457.276171 400.757196 456.212907 
C 399.693932 455.149643 398.251634 454.552224 396.747952 454.552224 
C 395.244269 454.552224 393.801971 455.149643 392.738707 456.212907 
C 391.675443 457.276171 391.078024 458.718469 391.078024 460.222151 
C 391.078024 461.725834 391.675443 463.168132 392.738707 464.231396 
C 393.801971 465.29466 395.244269 465.892079 396.747952 465.892079 
z
" clip-path="url(#p747e111950)" style="fill: #807090; fill-opacity: 0.87; stroke: #ffffff; stroke-opacity: 0.87"/>
    <path d="M 396.250475 458.238918 
C 397.904477 458.238918 399.490959 457.581776 400.660515 456.41222 
C 401.830071 455.242663 402.487214 453.656182 402.487214 452.002179 
C 402.487214 450.348177 401.830071 448.761695 400.660515 447.592139 
C 399.490959 446.422583 397.904477 445.765441 396.250475 445.765441 
C 394.596472 445.765441 393.009991 446.422583 391.840434 447.592139 
C 390.670878 448.761695 390.013736 450.348177 390.013736 452.002179 
C 390.013736 453.656182 390.670878 455.242663 391.840434 456.41222 
C 393.009991 457.581776 394.596472 458.238918 396.250475 458.238918 
z
" clip-path="url(#p747e111950)" style="fill: #807090; fill-opacity: 0.87; stroke: #ffffff; stroke-opacity: 0.87"/>
    <path d="M 398.669655 448.12996 
C 400.51658 448.12996 402.288108 447.396169 403.594082 446.090196 
C 404.900055 444.784222 405.633846 443.012694 405.633846 441.165769 
C 405.633846 439.318844 404.900055 437.547316 403.594082 436.241342 
C 402.288108 434.935369 400.51658 434.201578 398.669655 434.201578 
C 396.82273 434.201578 395.051202 434.935369 393.745228 436.241342 
C 392.439255 437.547316 391.705464 439.318844 391.705464 441.165769 
C 391.705464 443.012694 392.439255 444.784222 393.745228 446.090196 
C 395.051202 447.396169 396.82273 448.12996 398.669655 448.12996 
z
" clip-path="url(#p747e111950)" style="fill: #807090; fill-opacity: 0.87; stroke: #ffffff; stroke-opacity: 0.87"/>
    <path d="M 335.894971 487.516126 
C 337.520993 487.516126 339.080637 486.8701 340.230409 485.720329 
C 341.38018 484.570557 342.026206 483.010913 342.026206 481.384891 
C 342.026206 479.758868 341.38018 478.199224 340.230409 477.049453 
C 339.080637 475.899681 337.520993 475.253655 335.894971 475.253655 
C 334.268948 475.253655 332.709304 475.899681 331.559533 477.049453 
C 330.409761 478.199224 329.763735 479.758868 329.763735 481.384891 
C 329.763735 483.010913 330.409761 484.570557 331.559533 485.720329 
C 332.709304 486.8701 334.268948 487.516126 335.894971 487.516126 
z
" clip-path="url(#p747e111950)" style="fill: #807090; fill-opacity: 0.87; stroke: #ffffff; stroke-opacity: 0.87"/>
   </g>
   <g id="patch_5">
    <path d="M 316.961216 488.446447 
Q 314.730089 487.287391 312.498961 486.128336 
" style="fill: none; stroke: #a7b0b4; stroke-width: 0.5; stroke-linecap: round"/>
   </g>
   <g id="text_14">
    <text style="font-weight: 700; font-size: 9px; font-family: 'DejaVu Sans'; text-anchor: start; fill: #803744" x="318.723196" y="498.205838" transform="rotate(-0 318.723196 498.205838)">1081</text>
   </g>
   <g id="patch_6">
    <path d="M 352.520162 567.107237 
Q 350.675775 568.087423 348.831388 569.067609 
" style="fill: none; stroke: #a7b0b4; stroke-width: 0.5; stroke-linecap: round"/>
   </g>
   <g id="text_15">
    <text style="font-size: 9px; font-family: 'DejaVu Sans'; text-anchor: start; fill: #343a40" x="355.06557" y="562.00604" transform="rotate(-0 355.06557 562.00604)">1113</text>
   </g>
   <g id="patch_7">
    <path d="M 363.468994 484.001498 
Q 361.624607 484.981684 359.78022 485.96187 
" style="fill: none; stroke: #a7b0b4; stroke-width: 0.5; stroke-linecap: round"/>
   </g>
   <g id="text_16">
    <text style="font-size: 9px; font-family: 'DejaVu Sans'; text-anchor: start; fill: #343a40" x="366.014403" y="478.900301" transform="rotate(-0 366.014403 478.900301)">1032</text>
   </g>
   <g id="patch_8">
    <path d="M 356.640527 489.818478 
Q 354.598014 488.698956 352.5555 487.579434 
" style="fill: none; stroke: #a7b0b4; stroke-width: 0.5; stroke-linecap: round"/>
   </g>
   <g id="text_17">
    <text style="font-size: 9px; font-family: 'DejaVu Sans'; text-anchor: start; fill: #343a40" x="358.802331" y="499.618504" transform="rotate(-0 358.802331 499.618504)">1031</text>
   </g>
   <g id="patch_9">
    <path d="M 314.165432 481.960751 
Q 317.867299 483.519749 321.569166 485.078746 
" style="fill: none; stroke: #a7b0b4; stroke-width: 0.5; stroke-linecap: round"/>
   </g>
   <g id="text_18">
    <text style="font-size: 9px; font-family: 'DejaVu Sans'; text-anchor: start; fill: #343a40" x="287.416712" y="477.856818" transform="rotate(-0 287.416712 477.856818)">1080</text>
   </g>
   <g id="patch_10">
    <path d="M 262.63599 485.869887 
Q 260.593477 484.750365 258.550963 483.630843 
" style="fill: none; stroke: #a7b0b4; stroke-width: 0.5; stroke-linecap: round"/>
   </g>
   <g id="text_19">
    <text style="font-size: 9px; font-family: 'DejaVu Sans'; text-anchor: start; fill: #343a40" x="264.797793" y="495.669913" transform="rotate(-0 264.797793 495.669913)">1085</text>
   </g>
   <g id="patch_11">
    <path d="M 269.716582 478.264501 
Q 273.418449 479.823498 277.120316 481.382496 
" style="fill: none; stroke: #a7b0b4; stroke-width: 0.5; stroke-linecap: round"/>
   </g>
   <g id="text_20">
    <text style="font-size: 9px; font-family: 'DejaVu Sans'; text-anchor: start; fill: #343a40" x="242.967862" y="474.160568" transform="rotate(-0 242.967862 474.160568)">1084</text>
   </g>
   <g id="patch_12">
    <path d="M 349.038915 468.923867 
Q 343.193775 474.465311 337.348634 480.006755 
" style="fill: none; stroke: #a7b0b4; stroke-width: 0.5; stroke-linecap: round"/>
   </g>
   <g id="text_21">
    <text style="font-size: 9px; font-family: 'DejaVu Sans'; text-anchor: start; fill: #343a40" x="345.894971" y="463.384891" transform="rotate(-0 345.894971 463.384891)">1112</text>
   </g>
   <g id="patch_13">
    <path d="M 402.202543 457.323348 
Q 400.358156 458.303534 398.513769 459.28372 
" style="fill: none; stroke: #a7b0b4; stroke-width: 0.5; stroke-linecap: round"/>
   </g>
   <g id="text_22">
    <text style="font-size: 9px; font-family: 'DejaVu Sans'; text-anchor: start; fill: #343a40" x="404.747952" y="452.222151" transform="rotate(-0 404.747952 452.222151)">1034</text>
   </g>
   <g id="patch_14">
    <path d="M 289.154995 455.539044 
Q 287.310608 456.51923 285.466221 457.499417 
" style="fill: none; stroke: #a7b0b4; stroke-width: 0.5; stroke-linecap: round"/>
   </g>
   <g id="text_23">
    <text style="font-size: 9px; font-family: 'DejaVu Sans'; text-anchor: start; fill: #343a40" x="291.700403" y="450.437848" transform="rotate(-0 291.700403 450.437848)">1095</text>
   </g>
   <g id="patch_15">
    <path d="M 402.088671 455.202153 
Q 400.046158 454.082631 398.003644 452.963109 
" style="fill: none; stroke: #a7b0b4; stroke-width: 0.5; stroke-linecap: round"/>
   </g>
   <g id="text_24">
    <text style="font-size: 9px; font-family: 'DejaVu Sans'; text-anchor: start; fill: #343a40" x="404.250475" y="465.002179" transform="rotate(-0 404.250475 465.002179)">1035</text>
   </g>
   <g id="patch_16">
    <path d="M 291.580789 439.084618 
Q 289.736402 440.064804 287.892015 441.04499 
" style="fill: none; stroke: #a7b0b4; stroke-width: 0.5; stroke-linecap: round"/>
   </g>
   <g id="text_25">
    <text style="font-size: 9px; font-family: 'DejaVu Sans'; text-anchor: start; fill: #343a40" x="294.126197" y="433.983421" transform="rotate(-0 294.126197 433.983421)">1092</text>
   </g>
   <g id="patch_17">
    <path d="M 404.124247 438.266966 
Q 402.27986 439.247152 400.435473 440.227338 
" style="fill: none; stroke: #a7b0b4; stroke-width: 0.5; stroke-linecap: round"/>
   </g>
   <g id="text_26">
    <text style="font-size: 9px; font-family: 'DejaVu Sans'; text-anchor: start; fill: #343a40" x="406.669655" y="433.165769" transform="rotate(-0 406.669655 433.165769)">1036</text>
   </g>
   <g id="patch_18">
    <path d="M 349.130622 434.317638 
Q 347.286235 435.297824 345.441848 436.278011 
" style="fill: none; stroke: #a7b0b4; stroke-width: 0.5; stroke-linecap: round"/>
   </g>
   <g id="text_27">
    <text style="font-size: 9px; font-family: 'DejaVu Sans'; text-anchor: start; fill: #343a40" x="351.67603" y="429.216442" transform="rotate(-0 351.67603 429.216442)">1117</text>
   </g>
   <g id="patch_19">
    <path d="M 426.931507 412.395422 
Q 425.08712 413.375608 423.242733 414.355795 
" style="fill: none; stroke: #a7b0b4; stroke-width: 0.5; stroke-linecap: round"/>
   </g>
   <g id="text_28">
    <text style="font-size: 9px; font-family: 'DejaVu Sans'; text-anchor: start; fill: #343a40" x="429.476915" y="407.294226" transform="rotate(-0 429.476915 407.294226)">1066</text>
   </g>
   <g id="patch_20">
    <path d="M 397.221757 409.619255 
Q 400.923624 411.178253 404.625491 412.73725 
" style="fill: none; stroke: #a7b0b4; stroke-width: 0.5; stroke-linecap: round"/>
   </g>
   <g id="text_29">
    <text style="font-size: 9px; font-family: 'DejaVu Sans'; text-anchor: start; fill: #343a40" x="370.473036" y="405.515322" transform="rotate(-0 370.473036 405.515322)">1054</text>
   </g>
   <g id="patch_21">
    <path d="M 240.393369 407.844699 
Q 238.548982 408.824886 236.704595 409.805072 
" style="fill: none; stroke: #a7b0b4; stroke-width: 0.5; stroke-linecap: round"/>
   </g>
   <g id="text_30">
    <text style="font-size: 9px; font-family: 'DejaVu Sans'; text-anchor: start; fill: #343a40" x="242.938777" y="402.743503" transform="rotate(-0 242.938777 402.743503)">1029</text>
   </g>
   <g id="patch_22">
    <path d="M 298.490076 400.671156 
Q 296.645689 401.651342 294.801302 402.631528 
" style="fill: none; stroke: #a7b0b4; stroke-width: 0.5; stroke-linecap: round"/>
   </g>
   <g id="text_31">
    <text style="font-size: 9px; font-family: 'DejaVu Sans'; text-anchor: start; fill: #343a40" x="301.035484" y="395.569959" transform="rotate(-0 301.035484 395.569959)">1010</text>
   </g>
   <g id="patch_23">
    <path d="M 482.351694 396.960002 
Q 486.053561 398.519 489.755428 400.077998 
" style="fill: none; stroke: #a7b0b4; stroke-width: 0.5; stroke-linecap: round"/>
   </g>
   <g id="text_32">
    <text style="font-size: 9px; font-family: 'DejaVu Sans'; text-anchor: start; fill: #343a40" x="455.602974" y="392.85607" transform="rotate(-0 455.602974 392.85607)">1503</text>
   </g>
   <g id="patch_24">
    <path d="M 418.296242 387.621119 
Q 416.451855 388.601305 414.607468 389.581491 
" style="fill: none; stroke: #a7b0b4; stroke-width: 0.5; stroke-linecap: round"/>
   </g>
   <g id="text_33">
    <text style="font-size: 9px; font-family: 'DejaVu Sans'; text-anchor: start; fill: #343a40" x="420.84165" y="382.519922" transform="rotate(-0 420.84165 382.519922)">1069</text>
   </g>
   <g id="patch_25">
    <path d="M 345.234099 377.13229 
Q 343.389712 378.112477 341.545324 379.092663 
" style="fill: none; stroke: #a7b0b4; stroke-width: 0.5; stroke-linecap: round"/>
   </g>
   <g id="text_34">
    <text style="font-size: 9px; font-family: 'DejaVu Sans'; text-anchor: start; fill: #343a40" x="347.779507" y="372.031094" transform="rotate(-0 347.779507 372.031094)">1079</text>
   </g>
   <g id="patch_26">
    <path d="M 314.62387 375.694587 
Q 312.779483 376.674773 310.935096 377.654959 
" style="fill: none; stroke: #a7b0b4; stroke-width: 0.5; stroke-linecap: round"/>
   </g>
   <g id="text_35">
    <text style="font-size: 9px; font-family: 'DejaVu Sans'; text-anchor: start; fill: #343a40" x="317.169279" y="370.59339" transform="rotate(-0 317.169279 370.59339)">1078</text>
   </g>
   <g id="patch_27">
    <path d="M 457.231303 372.584759 
Q 455.386916 373.564945 453.542529 374.545131 
" style="fill: none; stroke: #a7b0b4; stroke-width: 0.5; stroke-linecap: round"/>
   </g>
   <g id="text_36">
    <text style="font-size: 9px; font-family: 'DejaVu Sans'; text-anchor: start; fill: #343a40" x="459.776712" y="367.483562" transform="rotate(-0 459.776712 367.483562)">1044</text>
   </g>
   <g id="patch_28">
    <path d="M 424.611533 363.482822 
Q 422.767146 364.463008 420.922759 365.443194 
" style="fill: none; stroke: #a7b0b4; stroke-width: 0.5; stroke-linecap: round"/>
   </g>
   <g id="text_37">
    <text style="font-size: 9px; font-family: 'DejaVu Sans'; text-anchor: start; fill: #343a40" x="427.156941" y="358.381625" transform="rotate(-0 427.156941 358.381625)">1041</text>
   </g>
   <g id="patch_29">
    <path d="M 403.603598 351.532059 
Q 407.305465 353.091057 411.007332 354.650055 
" style="fill: none; stroke: #a7b0b4; stroke-width: 0.5; stroke-linecap: round"/>
   </g>
   <g id="text_38">
    <text style="font-size: 9px; font-family: 'DejaVu Sans'; text-anchor: start; fill: #343a40" x="376.854878" y="347.428127" transform="rotate(-0 376.854878 347.428127)">1030</text>
   </g>
   <g id="patch_30">
    <path d="M 357.987249 349.815325 
Q 355.944736 348.695803 353.902222 347.576281 
" style="fill: none; stroke: #a7b0b4; stroke-width: 0.5; stroke-linecap: round"/>
   </g>
   <g id="text_39">
    <text style="font-size: 9px; font-family: 'DejaVu Sans'; text-anchor: start; fill: #343a40" x="360.149052" y="359.615351" transform="rotate(-0 360.149052 359.615351)">1071</text>
   </g>
   <g id="patch_31">
    <path d="M 442.797032 337.875647 
Q 440.952645 338.855833 439.108258 339.83602 
" style="fill: none; stroke: #a7b0b4; stroke-width: 0.5; stroke-linecap: round"/>
   </g>
   <g id="text_40">
    <text style="font-size: 9px; font-family: 'DejaVu Sans'; text-anchor: start; fill: #343a40" x="445.34244" y="332.774451" transform="rotate(-0 445.34244 332.774451)">1058</text>
   </g>
   <g id="patch_32">
    <path d="M 476.434054 316.708315 
Q 480.135921 318.267312 483.837788 319.82631 
" style="fill: none; stroke: #a7b0b4; stroke-width: 0.5; stroke-linecap: round"/>
   </g>
   <g id="text_41">
    <text style="font-size: 9px; font-family: 'DejaVu Sans'; text-anchor: start; fill: #343a40" x="449.685334" y="312.604382" transform="rotate(-0 449.685334 312.604382)">1059</text>
   </g>
   <g id="patch_33">
    <path d="M 419.146314 262.107179 
Q 417.301927 263.087365 415.45754 264.067551 
" style="fill: none; stroke: #a7b0b4; stroke-width: 0.5; stroke-linecap: round"/>
   </g>
   <g id="text_42">
    <text style="font-size: 9px; font-family: 'DejaVu Sans'; text-anchor: start; fill: #343a40" x="421.691722" y="257.005982" transform="rotate(-0 421.691722 257.005982)">1018</text>
   </g>
   <g id="patch_34">
    <path d="M 468.799347 242.72727 
Q 466.95496 243.707456 465.110573 244.687642 
" style="fill: none; stroke: #a7b0b4; stroke-width: 0.5; stroke-linecap: round"/>
   </g>
   <g id="text_43">
    <text style="font-size: 9px; font-family: 'DejaVu Sans'; text-anchor: start; fill: #343a40" x="471.344755" y="237.626073" transform="rotate(-0 471.344755 237.626073)">1016</text>
   </g>
  </g>
  <g id="axes_2">
   <g id="patch_35">
    <path d="M 787.968 395.208 
L 1080.576 395.208 
L 1080.576 252.648 
L 787.968 252.648 
z
" style="fill: #ffffff"/>
   </g>
   <g id="matplotlib.axis_3">
    <g id="xtick_6">
     <g id="line2d_23">
      <path d="M 787.968 395.208 
L 787.968 252.648 
" clip-path="url(#p227a9ba00d)" style="fill: none; stroke: #e0e4e5; stroke-width: 0.7; stroke-linecap: square"/>
     </g>
     <g id="line2d_24">
      <g>
       <use xlink:href="#m24da65388b" x="787.968" y="395.208" style="fill: #697178; stroke: #697178; stroke-width: 0.8"/>
      </g>
     </g>
     <g id="text_44">
      <text style="font-size: 12px; font-family: 'DejaVu Sans'; text-anchor: middle; fill: #697178" x="787.968" y="411.325188" transform="rotate(-0 787.968 411.325188)">0</text>
     </g>
    </g>
    <g id="xtick_7">
     <g id="line2d_25">
      <path d="M 864.970105 395.208 
L 864.970105 252.648 
" clip-path="url(#p227a9ba00d)" style="fill: none; stroke: #e0e4e5; stroke-width: 0.7; stroke-linecap: square"/>
     </g>
     <g id="line2d_26">
      <g>
       <use xlink:href="#m24da65388b" x="864.970105" y="395.208" style="fill: #697178; stroke: #697178; stroke-width: 0.8"/>
      </g>
     </g>
     <g id="text_45">
      <text style="font-size: 12px; font-family: 'DejaVu Sans'; text-anchor: middle; fill: #697178" x="864.970105" y="411.325188" transform="rotate(-0 864.970105 411.325188)">50</text>
     </g>
    </g>
    <g id="xtick_8">
     <g id="line2d_27">
      <path d="M 941.972211 395.208 
L 941.972211 252.648 
" clip-path="url(#p227a9ba00d)" style="fill: none; stroke: #e0e4e5; stroke-width: 0.7; stroke-linecap: square"/>
     </g>
     <g id="line2d_28">
      <g>
       <use xlink:href="#m24da65388b" x="941.972211" y="395.208" style="fill: #697178; stroke: #697178; stroke-width: 0.8"/>
      </g>
     </g>
     <g id="text_46">
      <text style="font-size: 12px; font-family: 'DejaVu Sans'; text-anchor: middle; fill: #697178" x="941.972211" y="411.325188" transform="rotate(-0 941.972211 411.325188)">100</text>
     </g>
    </g>
    <g id="xtick_9">
     <g id="line2d_29">
      <path d="M 1018.974316 395.208 
L 1018.974316 252.648 
" clip-path="url(#p227a9ba00d)" style="fill: none; stroke: #e0e4e5; stroke-width: 0.7; stroke-linecap: square"/>
     </g>
     <g id="line2d_30">
      <g>
       <use xlink:href="#m24da65388b" x="1018.974316" y="395.208" style="fill: #697178; stroke: #697178; stroke-width: 0.8"/>
      </g>
     </g>
     <g id="text_47">
      <text style="font-size: 12px; font-family: 'DejaVu Sans'; text-anchor: middle; fill: #697178" x="1018.974316" y="411.325188" transform="rotate(-0 1018.974316 411.325188)">150</text>
     </g>
    </g>
    <g id="text_48">
     <text style="font-size: 10.5px; font-family: 'DejaVu Sans'; text-anchor: middle; fill: #343a40" x="934.272" y="426.186359" transform="rotate(-0 934.272 426.186359)">Mean estimated entries / 15 min</text>
    </g>
   </g>
   <g id="matplotlib.axis_4">
    <g id="ytick_7">
     <g id="line2d_31"/>
     <g id="text_49">
      <text style="font-size: 12px; font-family: 'DejaVu Sans'; text-anchor: end; fill: #697178" x="784.468" y="274.185387" transform="rotate(-0 784.468 274.185387)">North</text>
     </g>
    </g>
    <g id="ytick_8">
     <g id="line2d_32"/>
     <g id="text_50">
      <text style="font-size: 12px; font-family: 'DejaVu Sans'; text-anchor: end; fill: #697178" x="784.468" y="310.386504" transform="rotate(-0 784.468 310.386504)">South</text>
     </g>
    </g>
    <g id="ytick_9">
     <g id="line2d_33"/>
     <g id="text_51">
      <text style="font-size: 12px; font-family: 'DejaVu Sans'; text-anchor: end; fill: #697178" x="784.468" y="346.587152" transform="rotate(-0 784.468 346.587152)">East</text>
     </g>
    </g>
    <g id="ytick_10">
     <g id="line2d_34"/>
     <g id="text_52">
      <text style="font-size: 12px; font-family: 'DejaVu Sans'; text-anchor: end; fill: #697178" x="784.468" y="382.78827" transform="rotate(-0 784.468 382.78827)">West</text>
     </g>
    </g>
   </g>
   <g id="patch_36">
    <path d="M 787.968 259.128 
L 1022.549171 259.128 
L 1022.549171 280.124648 
L 787.968 280.124648 
z
" clip-path="url(#p227a9ba00d)" style="fill: #803744"/>
   </g>
   <g id="patch_37">
    <path d="M 787.968 295.329117 
L 1018.940689 295.329117 
L 1018.940689 316.325765 
L 787.968 316.325765 
z
" clip-path="url(#p227a9ba00d)" style="fill: #803744"/>
   </g>
   <g id="patch_38">
    <path d="M 787.968 331.530235 
L 904.973037 331.530235 
L 904.973037 352.526883 
L 787.968 352.526883 
z
" clip-path="url(#p227a9ba00d)" style="fill: #547e82"/>
   </g>
   <g id="patch_39">
    <path d="M 787.968 367.731352 
L 881.036971 367.731352 
L 881.036971 388.728 
L 787.968 388.728 
z
" clip-path="url(#p227a9ba00d)" style="fill: #547e82"/>
   </g>
   <g id="patch_40">
    <path d="M 787.968 395.208 
L 1080.576 395.208 
" style="fill: none; stroke: #e0e4e5; stroke-width: 0.8; stroke-linejoin: miter; stroke-linecap: square"/>
   </g>
   <g id="text_53">
    <text style="font-size: 11px; font-family: 'DejaVu Sans'; text-anchor: start; fill: #343a40" x="1027.169297" y="272.483746" transform="rotate(-0 1027.169297 272.483746)">152.3</text>
   </g>
   <g id="text_54">
    <text style="font-size: 11px; font-family: 'DejaVu Sans'; text-anchor: start; fill: #343a40" x="1023.560815" y="308.684863" transform="rotate(-0 1023.560815 308.684863)">150.0</text>
   </g>
   <g id="text_55">
    <text style="font-size: 11px; font-family: 'DejaVu Sans'; text-anchor: start; fill: #343a40" x="909.593163" y="344.885981" transform="rotate(-0 909.593163 344.885981)">76.0</text>
   </g>
   <g id="text_56">
    <text style="font-size: 11px; font-family: 'DejaVu Sans'; text-anchor: start; fill: #343a40" x="885.657097" y="381.087098" transform="rotate(-0 885.657097 381.087098)">60.4</text>
   </g>
  </g>
  <g id="patch_41">
   <path d="M 57.6 38.808 
L 95.616 38.808 
L 95.616 34.056 
L 57.6 34.056 
z
" style="fill: #803744"/>
  </g>
  <g id="line2d_35">
   <path d="M 57.6 712.008 
L 1094.4 712.008 
" style="fill: none; stroke: #e0e4e5; stroke-width: 0.9; stroke-linecap: square"/>
  </g>
  <g id="text_57">
   <text style="font-weight: 700; font-size: 10.5px; font-family: 'DejaVu Sans'; text-anchor: start; fill: #803744" x="109.44" y="39.762164" transform="rotate(-0 109.44 39.762164)">ISFAHAN SCATS · SPATIAL VIEW &amp; JUNCTION DETAIL</text>
  </g>
  <g id="text_58">
   <text style="font-weight: 700; font-size: 27px; font-family: 'DejaVu Sans'; text-anchor: start; fill: #343a40" x="57.6" y="86.425313" transform="rotate(-0 57.6 86.425313)">Intersections, locations and approach volumes</text>
  </g>
  <g id="text_59">
   <text style="font-size: 12.5px; font-family: 'DejaVu Sans'; text-anchor: start; fill: #697178" x="57.6" y="114.679719" transform="rotate(-0 57.6 114.679719)">The city-scale coordinate registry and a closer look at the detector entries for junction TCS 1081.</text>
  </g>
  <g id="text_60">
   <text style="font-weight: 700; font-size: 19px; font-family: 'DejaVu Sans'; text-anchor: start; fill: #803744" x="63.36" y="172.591594" transform="rotate(-0 63.36 172.591594)">30 candidate junction locations</text>
  </g>
  <g id="text_61">
   <text style="font-size: 11.5px; font-family: 'DejaVu Sans'; text-anchor: start; fill: #697178" x="63.36" y="196.046781" transform="rotate(-0 63.36 196.046781)">Of 74 eligible junctions · 40.5% coordinate coverage</text>
  </g>
  <g id="text_62">
   <text style="font-size: 10.5px; font-family: 'DejaVu Sans'; fill: #697178" transform="translate(72.576 686.877844)">Marker area ∝ mean entry volume; labels identify SCATS junctions.</text>
   <text style="font-size: 10.5px; font-family: 'DejaVu Sans'; fill: #697178" transform="translate(72.576 702.102844)">Colors indicate traffic-profile communities. No road links are inferred.</text>
  </g>
  <g id="text_63">
   <text style="font-weight: 700; font-size: 19px; font-family: 'DejaVu Sans'; text-anchor: start; fill: #803744" x="731.52" y="172.591594" transform="rotate(-0 731.52 172.591594)">TCS 1081 · entry approaches</text>
  </g>
  <g id="text_64">
   <text style="font-size: 13px; font-family: 'DejaVu Sans'; fill: #343a40" transform="translate(731.52 200.391562)">North + south account for 68.9%</text>
   <text style="font-size: 13px; font-family: 'DejaVu Sans'; fill: #343a40" transform="translate(731.52 217.982188)">of the summed approach means.</text>
  </g>
  <g id="text_65">
   <text style="font-weight: 700; font-size: 13px; font-family: 'DejaVu Sans'; text-anchor: start; fill: #343a40" x="731.52" y="456.481406" transform="rotate(-0 731.52 456.481406)">Detector-to-approach mapping</text>
  </g>
  <g id="text_66">
   <text style="font-size: 11.5px; font-family: 'DejaVu Sans'; fill: #697178" transform="translate(731.52 482.280844)">North: 7–9     South: 1–3</text>
   <text style="font-size: 11.5px; font-family: 'DejaVu Sans'; fill: #697178" transform="translate(731.52 498.85432)">East: 10–12    West: 4–6</text>
  </g>
  <g id="text_67">
   <text style="font-weight: 700; font-size: 13px; font-family: 'DejaVu Sans'; text-anchor: start; fill: #343a40" x="731.52" y="547.287562" transform="rotate(-0 731.52 547.287562)">What this measures</text>
  </g>
  <g id="text_68">
   <text style="font-size: 11.5px; font-family: 'DejaVu Sans'; fill: #697178" transform="translate(731.52 570.662781)">Vehicles entering the junction through</text>
   <text style="font-size: 11.5px; font-family: 'DejaVu Sans'; fill: #697178" transform="translate(731.52 587.337781)">its monitored approaches. Available monthly</text>
   <text style="font-size: 11.5px; font-family: 'DejaVu Sans'; fill: #697178" transform="translate(731.52 604.012781)">means are averaged for each approach.</text>
  </g>
  <g id="text_69">
   <text style="font-size: 11.5px; font-family: 'DejaVu Sans'; fill: #697178" transform="translate(731.52 641.150781)">Entry counts do not measure exits, turning</text>
   <text style="font-size: 11.5px; font-family: 'DejaVu Sans'; fill: #697178" transform="translate(731.52 657.825781)">movements or trips between junctions.</text>
  </g>
  <g id="text_70">
   <text style="font-size: 10.5px; font-family: 'DejaVu Sans'; text-anchor: start; fill: #697178" x="57.6" y="738.357844" transform="rotate(-0 57.6 738.357844)">Coordinates are cached OpenStreetMap/Nominatim candidates and require municipal GIS verification; 44 eligible junctions remain unlocated.</text>
  </g>
  <g id="text_71">
   <text style="font-size: 10px; font-family: 'DejaVu Sans'; text-anchor: start; fill: #697178" x="57.6" y="758.310313" transform="rotate(-0 57.6 758.310313)">Source: committed isfahan_intersections_map.html, map_summary.json and analysis_summary.json. No new geocoding or raw-data reprocessing.</text>
  </g>
  <g id="text_72">
   <text style="font-size: 9.5px; font-family: 'DejaVu Sans'; text-anchor: start; fill: #697178" x="57.6" y="776.956906" transform="rotate(-0 57.6 776.956906)">MehdiAminazadeh/traffic · revision d4e5af43c63c · coordinate scatter, not a verified street map.</text>
  </g>
  <g id="legend_1">
   <g id="PathCollection_5">
    <defs>
     <path id="m163c2642d5" d="M 0 3.749431 
C 0.994361 3.749431 1.948129 3.354367 2.651248 2.651248 
C 3.354367 1.948129 3.749431 0.994361 3.749431 0 
C 3.749431 -0.994361 3.354367 -1.948129 2.651248 -2.651248 
C 1.948129 -3.354367 0.994361 -3.749431 0 -3.749431 
C -0.994361 -3.749431 -1.948129 -3.354367 -2.651248 -2.651248 
C -3.354367 -1.948129 -3.749431 -0.994361 -3.749431 0 
C -3.749431 0.994361 -3.354367 1.948129 -2.651248 2.651248 
C -1.948129 3.354367 -0.994361 3.749431 0 3.749431 
z
" style="stroke: #ffffff; stroke-opacity: 0.87"/>
    </defs>
    <g>
     <use xlink:href="#m163c2642d5" x="89.676" y="657.264094" style="fill: #803744; fill-opacity: 0.87; stroke: #ffffff; stroke-opacity: 0.87"/>
    </g>
   </g>
   <g id="text_73">
    <text style="font-size: 9px; font-family: 'DejaVu Sans'; text-anchor: start; fill: #343a40" x="101.826" y="659.626594" transform="rotate(-0 101.826 659.626594)">Community 1</text>
   </g>
   <g id="PathCollection_6">
    <defs>
     <path id="m4426b3cfa4" d="M 0 3.822339 
C 1.013696 3.822339 1.98601 3.419593 2.702802 2.702802 
C 3.419593 1.98601 3.822339 1.013696 3.822339 0 
C 3.822339 -1.013696 3.419593 -1.98601 2.702802 -2.702802 
C 1.98601 -3.419593 1.013696 -3.822339 0 -3.822339 
C -1.013696 -3.822339 -1.98601 -3.419593 -2.702802 -2.702802 
C -3.419593 -1.98601 -3.822339 -1.013696 -3.822339 0 
C -3.822339 1.013696 -3.419593 1.98601 -2.702802 2.702802 
C -1.98601 3.419593 -1.013696 3.822339 0 3.822339 
z
" style="stroke: #ffffff; stroke-opacity: 0.87"/>
    </defs>
    <g>
     <use xlink:href="#m4426b3cfa4" x="181.400062" y="657.264094" style="fill: #547e82; fill-opacity: 0.87; stroke: #ffffff; stroke-opacity: 0.87"/>
    </g>
   </g>
   <g id="text_74">
    <text style="font-size: 9px; font-family: 'DejaVu Sans'; text-anchor: start; fill: #343a40" x="193.550062" y="659.626594" transform="rotate(-0 193.550062 659.626594)">Community 2</text>
   </g>
   <g id="PathCollection_7">
    <defs>
     <path id="m833fc1205c" d="M 0 3.924117 
C 1.040688 3.924117 2.038892 3.510648 2.77477 2.77477 
C 3.510648 2.038892 3.924117 1.040688 3.924117 0 
C 3.924117 -1.040688 3.510648 -2.038892 2.77477 -2.77477 
C 2.038892 -3.510648 1.040688 -3.924117 0 -3.924117 
C -1.040688 -3.924117 -2.038892 -3.510648 -2.77477 -2.77477 
C -3.510648 -2.038892 -3.924117 -1.040688 -3.924117 0 
C -3.924117 1.040688 -3.510648 2.038892 -2.77477 2.77477 
C -2.038892 3.510648 -1.040688 3.924117 0 3.924117 
z
" style="stroke: #ffffff; stroke-opacity: 0.87"/>
    </defs>
    <g>
     <use xlink:href="#m833fc1205c" x="273.124125" y="657.264094" style="fill: #ac8848; fill-opacity: 0.87; stroke: #ffffff; stroke-opacity: 0.87"/>
    </g>
   </g>
   <g id="text_75">
    <text style="font-size: 9px; font-family: 'DejaVu Sans'; text-anchor: start; fill: #343a40" x="285.274125" y="659.626594" transform="rotate(-0 285.274125 659.626594)">Community 3</text>
   </g>
   <g id="PathCollection_8">
    <defs>
     <path id="m5d170c064c" d="M 0 4.127578 
C 1.094646 4.127578 2.144606 3.69267 2.918638 2.918638 
C 3.69267 2.144606 4.127578 1.094646 4.127578 0 
C 4.127578 -1.094646 3.69267 -2.144606 2.918638 -2.918638 
C 2.144606 -3.69267 1.094646 -4.127578 0 -4.127578 
C -1.094646 -4.127578 -2.144606 -3.69267 -2.918638 -2.918638 
C -3.69267 -2.144606 -4.127578 -1.094646 -4.127578 0 
C -4.127578 1.094646 -3.69267 2.144606 -2.918638 2.918638 
C -2.144606 3.69267 -1.094646 4.127578 0 4.127578 
z
" style="stroke: #ffffff; stroke-opacity: 0.87"/>
    </defs>
    <g>
     <use xlink:href="#m5d170c064c" x="364.848187" y="657.264094" style="fill: #807090; fill-opacity: 0.87; stroke: #ffffff; stroke-opacity: 0.87"/>
    </g>
   </g>
   <g id="text_76">
    <text style="font-size: 9px; font-family: 'DejaVu Sans'; text-anchor: start; fill: #343a40" x="376.998187" y="659.626594" transform="rotate(-0 376.998187 659.626594)">Community 4</text>
   </g>
  </g>
 </g>
 <defs>
  <clipPath id="p747e111950">
   <rect x="209.242761" y="221.76" width="303.818477" height="370.656"/>
  </clipPath>
  <clipPath id="p227a9ba00d">
   <rect x="787.968" y="252.648" width="292.608" height="142.56"/>
  </clipPath>
 </defs>
</svg>
